Coordinates
version=1
nRows=14
nColumns=40
inDegrees=yes

Units are S.I. units (second, meters, Newtons, ...)
Angles are in degrees.

endheader
time	pelvis_tilt	pelvis_list	pelvis_rotation	pelvis_tx	pelvis_ty	pelvis_tz	hip_flexion_r	hip_adduction_r	hip_rotation_r	knee_angle_r	knee_angle_r_beta	ankle_angle_r	subtalar_angle_r	mtp_angle_r	hip_flexion_l	hip_adduction_l	hip_rotation_l	knee_angle_l	knee_angle_l_beta	ankle_angle_l	subtalar_angle_l	mtp_angle_l	lumbar_extension	lumbar_bending	lumbar_rotation	arm_flex_r	arm_add_r	arm_rot_r	elbow_flex_r	pro_sup_r	wrist_flex_r	wrist_dev_r	arm_flex_l	arm_add_l	arm_rot_l	elbow_flex_l	pro_sup_l	wrist_flex_l	wrist_dev_l
     49.69500000	     -5.35515817	     -4.57606386	      7.71359392	      0.97598069	      0.91762043	      0.46220987	     -3.17456846	      1.91124838	    -16.82637100	     15.68134380	     15.68134380	     18.45228464	      1.87780985	     -2.68046009	     28.60837510	     -4.82884230	      5.15275941	     26.78120425	     26.78120425	      6.21093572	    -11.59554709	      1.22991221	     -6.74775701	      2.09026743	      4.90992996	     63.65196584	    -19.21390632	     -5.67867270	     78.16615867	     45.03650189	      0.00000000	      0.00000000	    -12.53214179	     -9.64274706	     15.91968982	     28.03212205	     43.14308184	      0.00000000	      0.00000000
     49.71428571	     -5.43676683	     -4.50273109	      7.34985858	      0.97691167	      0.91821554	      0.45775201	     -3.39926974	      1.33686733	    -17.04011964	     15.98114982	     15.98114982	     17.88338563	      2.66379212	     -3.90483811	     28.29225818	     -4.50167416	      5.18427444	     27.19895826	     27.19895826	      7.35852034	    -12.04938085	      3.04694229	     -6.58459991	      2.10227735	      4.71012496	     63.45818547	    -18.47911382	     -5.97426663	     76.18321841	     45.12767417	      0.00000000	      0.00000000	    -11.82877274	     -9.78196617	     15.26966887	     28.26115009	     43.36973520	      0.00000000	      0.00000000
     49.73357143	     -5.43264080	     -4.52281733	      6.93324743	      0.97791229	      0.91883878	      0.45348398	     -3.64159501	      0.93899450	    -16.77649643	     16.36312698	     16.36312698	     17.54770790	      2.82281936	     -4.05993420	     27.84554685	     -4.38717581	      4.97428276	     27.48066506	     27.48066506	      7.89816993	    -12.38634053	      3.05137578	     -6.57412070	      2.23003335	      4.80689723	     62.64834128	    -18.35939642	     -5.96433628	     75.52046485	     45.14806304	      0.00000000	      0.00000000	    -11.01575406	    -10.03697542	     15.07542401	     28.57445806	     43.42811887	      0.00000000	      0.00000000
     49.75285714	     -5.50765267	     -4.47425173	      6.50749839	      0.97865474	      0.91934436	      0.44909944	     -3.64936563	      0.36869247	    -16.67110268	     17.01595128	     17.01595128	     17.16977237	      3.10378801	     -4.64159080	     27.42862381	     -4.17373093	      4.73430262	     27.65883544	     27.65883544	      8.47900828	    -12.72423290	      3.34020681	     -6.48171354	      2.28676731	      5.07103678	     61.81417230	    -18.43746511	     -6.24965325	     74.07365272	     45.20655442	      0.00000000	      0.00000000	     -9.99684742	    -10.32733828	     14.70508929	     29.03110692	     43.53248516	      0.00000000	      0.00000000
     49.77214286	     -5.45927487	     -4.58707127	      6.12598721	      0.97944637	      0.92000236	      0.44478536	     -3.84800383	      0.05238564	    -16.45329044	     17.48241980	     17.48241980	     16.77102361	      3.23662658	     -4.74649926	     26.91790716	     -4.14806996	      4.53625028	     27.84414115	     27.84414115	      8.96049954	    -12.99097671	      3.26177300	     -6.57330810	      2.58747121	      4.90684923	     60.69367378	    -18.05762509	     -6.14453926	     73.52123303	     45.21674649	      0.00000000	      0.00000000	     -9.02214160	    -10.57949523	     14.58556490	     29.34038444	     43.57073846	      0.00000000	      0.00000000
     49.79142857	     -5.56151932	     -4.41491308	      5.64901393	      0.98002478	      0.92040892	      0.44040495	     -3.48609572	     -0.77163666	    -16.31105544	     18.75642291	     18.75642291	     16.31202315	      3.25878363	     -5.78647281	     26.44913452	     -3.86335524	      4.02623817	     27.89514985	     27.89514985	      9.58203978	    -13.02236503	      3.48794222	     -6.43258506	      2.47327147	      5.12616816	     59.42609815	    -18.16252468	     -6.63235547	     71.58790191	     45.29572010	      0.00000000	      0.00000000	     -7.94054477	    -10.88800835	     14.17443308	     29.79179528	     43.67741268	      0.00000000	      0.00000000
     49.81071429	     -5.52396184	     -4.38875975	      5.25907746	      0.98058045	      0.92099701	      0.43608385	     -3.43630265	     -1.30628073	    -16.10505736	     19.50986925	     19.50986925	     14.62808370	      2.62612428	     -9.63892283	     25.95818566	     -3.73710872	      3.58235759	     28.14144025	     28.14144025	     10.62080030	    -12.78081668	      4.66374639	     -6.45447749	      2.59835360	      4.48867485	     58.57391914	    -16.81331166	     -7.60567087	     68.64238647	     45.43110999	      0.00000000	      0.00000000	     -7.10199596	    -10.98139541	     12.65386035	     30.01902301	     44.06578760	      0.00000000	      0.00000000
     49.83000000	     -5.50602964	     -4.37423213	      4.82624459	      0.98114174	      0.92151360	      0.43184228	     -2.96886463	     -1.95207761	    -15.85260792	     21.14182965	     21.14182965	     14.15493521	      2.23632112	    -10.19812233	     25.38721545	     -3.65346455	      3.03157006	     28.16446170	     28.16446170	     11.13414724	    -12.66621907	      4.46685166	     -6.46561194	      2.69344667	      4.40539485	     56.60862660	    -16.88269262	     -7.58125546	     67.63969452	     45.45560907	      0.00000000	      0.00000000	     -5.97272471	    -11.27036933	     12.38781765	     30.44321501	     44.13636330	      0.00000000	      0.00000000
     49.84928571	     -5.51743943	     -4.34193472	      4.38031417	      0.98143923	      0.92196316	      0.42770234	     -2.17534732	     -2.67032475	    -15.50033706	     23.25708961	     23.25708961	     13.45057989	      1.50873998	    -11.09884340	     24.85136931	     -3.56950156	      2.44684585	     28.16345567	     28.16345567	     11.65997859	    -12.35811559	      4.25820256	     -6.50214913	      2.77148335	      4.38207334	     54.50094521	    -16.87160669	     -7.65834861	     66.38761640	     45.49128365	      0.00000000	      0.00000000	     -4.65792162	    -11.54664412	     12.10276611	     30.84957211	     44.21372011	      0.00000000	      0.00000000
     49.86857143	     -5.51322615	     -4.31806806	      3.93284344	      0.98164948	      0.92232864	      0.42369818	     -1.14696687	     -3.40103821	    -15.08168600	     25.79257274	     25.79257274	     12.54226798	      0.40609831	    -12.21300169	     24.32075874	     -3.51694662	      1.78508349	     28.18261190	     28.18261190	     12.20086030	    -11.99795549	      4.04958748	     -6.54671066	      2.84902116	      4.26447828	     52.19863412	    -16.76262591	     -7.77778688	     65.01558761	     45.53130525	      0.00000000	      0.00000000	     -3.27875548	    -11.80665491	     11.83345286	     31.18213406	     44.28902974	      0.00000000	      0.00000000
     49.88785714	     -5.48856288	     -4.26248829	      3.47813842	      0.98167741	      0.92259182	      0.41985985	      0.14977302	     -4.18455987	    -14.57829791	     28.79861777	     28.79861777	     11.45841655	     -1.02244307	    -13.34791899	     23.80476166	     -3.44484468	      1.08723879	     28.24522300	     28.24522300	     12.74763122	    -11.62906152	      3.83426825	     -6.63248775	      2.88796221	      4.06992583	     49.69920693	    -16.57392044	     -7.88020044	     63.57787844	     45.57172852	      0.00000000	      0.00000000	     -1.83823319	    -12.07067157	     11.59315480	     31.46663997	     44.35868601	      0.00000000	      0.00000000
     49.90714286	     -5.49359919	     -4.26978384	      3.01850037	      0.98145933	      0.92257608	      0.41628642	      1.77387037	     -4.85834546	    -13.88012400	     32.21818603	     32.21818603	     10.11517636	     -2.94206320	    -14.59124931	     23.39174967	     -3.44504497	      0.43452961	     28.39658749	     28.39658749	     13.34205779	    -11.23889229	      3.63128024	     -6.68986154	      2.99629839	      3.93192924	     47.02220474	    -16.35235350	     -8.03473742	     61.92923679	     45.61996313	      0.00000000	      0.00000000	     -0.23693688	    -12.26394202	     11.35508665	     31.67047179	     44.43352224	      0.00000000	      0.00000000
     49.92642857	     -5.41984739	     -4.16722635	      2.54258558	      0.98110889	      0.92240748	      0.41285244	      3.58196500	     -5.65664883	    -13.10911475	     36.06103967	     36.06103967	      8.74667126	     -4.80827108	    -15.37687577	     22.92137525	     -3.32260989	     -0.20667285	     28.59750841	     28.59750841	     13.94929686	    -10.98717219	      3.41163666	     -6.86445889	      2.95769788	      3.63163999	     44.20399436	    -16.01233956	     -8.06633474	     60.36215287	     45.66005458	      0.00000000	      0.00000000	      1.37867376	    -12.54192482	     11.16806740	     31.88554803	     44.49574905	      0.00000000	      0.00000000
     49.94571429	     -5.36892041	     -4.10768617	      2.08135260	      0.98050309	      0.92190323	      0.40969686	      5.64109160	     -6.30031220	    -12.16359676	     40.12277646	     40.12277646	      7.30451063	     -6.88518034	    -15.74241588	     22.57475979	     -3.23134010	     -0.73114070	     28.92812899	     28.92812899	     14.53088243	    -10.84448012	      3.21745922	     -7.00573126	      3.00789336	      3.40986660	     41.22793785	    -15.67575262	     -8.08929051	     58.60961633	     45.70526123	      0.00000000	      0.00000000	      3.10860929	    -12.77159249	     11.01000416	     32.07170233	     44.55568531	      0.00000000	      0.00000000
